<svg width="178" height="34" viewBox="0 0 178 34" fill="none" xmlns="http://www.w3.org/2000/svg">
<path d="M76.0188 19.0282C74.0006 18.2564 73.0588 17.9382 73.0588 17.4386C73.0588 16.8544 74.0433 16.5665 74.7304 16.5665C76.0188 16.5665 77.1693 17.1333 78.7229 18.348C79.135 18.6703 79.4726 18.6148 79.8965 18.2038L84.5256 13.1362C81.7145 10.4454 78.225 9.58203 74.5584 9.58203C69.0193 9.58203 64.6394 12.3975 64.6394 17.4382C64.6394 20.7533 66.7007 23.1147 70.9086 24.3862C73.2273 25.0221 73.6766 25.4306 73.6766 25.7939C73.6766 26.3387 73.1415 26.8143 71.8962 26.8143C70.3026 26.8143 68.6746 26.108 67.5601 25.112C67.0689 24.6729 66.6262 24.8365 66.229 25.2483L61.4824 30.1021C64.4682 33.2375 68.3585 33.9687 71.8962 33.9687C77.9935 33.9687 82.2018 31.0624 82.2018 25.8851C82.2018 22.8881 80.3125 20.6178 76.0188 19.0282Z" fill="white"/>
<path d="M125.016 9.58203H125.015H111.531L114.883 13.8157C112.201 16.7592 111.104 20.612 111.104 23.2511C111.104 28.9732 115.569 33.9683 121.753 33.9683C131.715 33.9683 135.708 25.5669 135.708 20.39C135.708 14.5775 131.242 9.58203 125.016 9.58203ZM122.697 25.3971C120.894 25.3971 119.734 24.2955 119.734 22.6151C119.734 20.7533 121.108 17.9167 124.157 17.9167C125.96 17.9167 127.077 19.2548 127.077 20.9352C127.077 22.9789 125.446 25.3971 122.697 25.3971Z" fill="white"/>
<path d="M49.7625 21.9797C50.7074 17.3931 50.0203 9.67285 40.3586 9.67285C31.1694 9.67285 27.6055 18.3468 27.6055 23.6145C27.6055 29.1092 31.0406 33.9232 36.9663 33.9232C42.3698 33.9232 45.5087 31.9582 46.5629 31.2448L44.0801 26.2224C43.9011 25.879 43.5046 25.7331 43.1646 25.8893C42.2864 26.2924 40.4723 26.7481 38.7263 26.7481C36.8801 26.7481 35.6775 25.7945 35.3339 24.0689H49.1005C49.1013 24.0689 49.3759 23.7052 49.7625 21.9797ZM35.8929 18.9827C36.5369 17.3024 37.7391 15.8776 39.972 15.8776C41.9902 15.8776 42.8489 17.1205 43.0208 18.9827H35.8929Z" fill="white"/>
<path d="M167.939 9.67285C158.75 9.67285 155.186 18.3468 155.186 23.6145C155.186 29.1092 158.621 33.9232 164.546 33.9232C169.95 33.9232 173.089 31.9582 174.143 31.2448L171.66 26.2224C171.481 25.879 171.085 25.7331 170.745 25.8893C169.866 26.2924 168.052 26.7481 166.306 26.7481C164.46 26.7481 163.258 25.7945 162.914 24.0689H176.681C176.681 24.0689 176.955 23.7056 177.342 21.9801C178.287 17.3931 177.6 9.67285 167.939 9.67285ZM163.473 18.9827C164.117 17.3024 165.319 15.8776 167.552 15.8776C169.57 15.8776 170.429 17.1205 170.601 18.9827H163.473Z" fill="white"/>
<path d="M18.4078 9.58413C16.4754 9.58413 14.8439 10.0382 13.427 10.8556L15.6234 0H8.21381C7.19649 0 6.53916 0.802477 6.30451 1.92064L0 33.1985H5.38277C6.1016 33.1985 6.38051 32.8903 6.77302 32.4267L8.05907 30.792C9.30439 32.6993 11.2795 33.9708 14.3714 33.9708C23.0882 33.9708 26.6522 24.7976 26.6522 19.2573C26.6522 13.4896 23.3887 9.58413 18.4078 9.58413ZM13.6412 25.4447C11.8377 25.4447 10.6786 24.298 10.6786 22.6176C10.6786 20.7103 12.0528 17.9192 15.0585 17.9192C16.9047 17.9192 18.0212 19.2118 18.0212 20.9377C18.0212 22.981 16.3465 25.4447 13.6412 25.4447Z" fill="white"/>
<path d="M102.608 9.58413C100.376 9.58413 98.1859 10.4015 96.3823 11.673L98.7507 0H91.3412C90.3238 0 89.6665 0.802477 89.4319 1.92064L83.127 33.1985H90.9302C91.7666 33.1985 92.2351 32.5419 92.3538 31.9503L94.1499 22.9959C94.607 20.5441 95.9056 18.0998 98.3884 18.0998C99.7939 18.0998 100.504 19.2118 100.032 21.6644L97.7287 33.1994L105.445 33.199C106.282 33.199 106.749 32.5423 106.868 31.9507L109.179 20.4836C110.509 13.8074 107.804 9.58413 102.608 9.58413Z" fill="white"/>
<path d="M153.46 9.67285C151.098 9.67285 149.166 10.7173 147.449 12.7154L146.785 10.9899C146.59 10.4198 146.291 10.2176 145.776 10.2176H140.262L135.609 33.1965H143.413C144.249 33.1965 144.718 32.5399 144.837 31.9483L146.805 22.116C147.32 19.4819 148.694 18.2561 150.669 18.2561C151.627 18.2561 152.366 18.5792 152.831 18.863C153.166 19.0672 153.533 19.0511 153.74 18.7068L158.265 11.1896C156.761 10.025 154.792 9.67285 153.46 9.67285Z" fill="white"/>
<path d="M65.3511 0H57.9427C56.9254 0 56.2681 0.802477 56.0334 1.92064L49.7285 33.1986H57.531C58.3673 33.1986 58.8359 32.5419 58.9546 31.9503L65.3511 0Z" fill="white"/>
</svg>
